#Comment line ignore any data following # character 
#Hierarchical Translation and Rotation (.htr) file 
[Header]	
#Header keywords are followed by a single value 
FileType HTR		#Single word string
DataType HTRS		#Translation followed by rotation and scale data
FileVersion 1		#integer
NumSegments 84		#integer
NumFrames 2		#integer
DataFrameRate 30		#integer, data frame rate in this file
EulerRotationOrder ZYX
CalibrationUnits mm
RotationUnits Degrees
GlobalAxisofGravity Y
BoneLengthAxis Y
ScaleFactor 1.00
[SegmentNames&Hierarchy]
#CHILD	PARENT
MASTER GLOBAL
root MASTER
chest root
L_mid_tent01 root
R_mid_tent01 root
spine01 root
Bip01_Neck chest
L_humerus chest
R_humerus chest
weapon_bone chest
Bip01_Head Bip01_Neck
eye_left_bone Bip01_Head
eye_right_bone Bip01_Head
L_forearm L_humerus
L_front_hand L_forearm
L_weapon_bone L_forearm
L_front_hand01_01 L_front_hand
L_front_hand02_01 L_front_hand
L_front_hand03_01 L_front_hand
L_front_hand01_02 L_front_hand01_01
L_front_hand02_02 L_front_hand02_01
L_front_hand03_02 L_front_hand03_01
R_forearm R_humerus
R_front_hand R_forearm
R_weapon_bone R_forearm
R_front_hand01_01 R_front_hand
R_front_hand02_01 R_front_hand
R_front_hand03_01 R_front_hand
R_front_hand01_02 R_front_hand01_01
R_front_hand02_02 R_front_hand02_01
R_front_hand03_02 R_front_hand03_01
null_rope01_connect L_mid_tent01
Rope1_Seg01 null_rope01_connect
Rope1_Seg02 Rope1_Seg01
Rope1_Seg03 Rope1_Seg02
Rope1_Seg04 Rope1_Seg03
Rope1_Seg05 Rope1_Seg04
Rope1_Seg06 Rope1_Seg05
Rope1_Seg07 Rope1_Seg06
Rope1_Seg09 Rope1_Seg07
L_mid_hand01 Rope1_Seg09
L_mid_hand02 Rope1_Seg09
L_mid_hand03 Rope1_Seg09
null_rope02_connect R_mid_tent01
Rope2_Seg01 null_rope02_connect
Rope2_Seg02 Rope2_Seg01
Rope2_Seg03 Rope2_Seg02
Rope2_Seg04 Rope2_Seg03
Rope2_Seg05 Rope2_Seg04
Rope2_Seg06 Rope2_Seg05
Rope2_Seg07 Rope2_Seg06
Rope2_Seg09 Rope2_Seg07
R_mid_hand01 Rope2_Seg09
R_mid_hand02 Rope2_Seg09
R_mid_hand03 Rope2_Seg09
spine02 spine01
spine03 spine02
pelvis spine03
null_rope03_connect pelvis
null_rope04_connect pelvis
Rope3_Seg01 null_rope03_connect
Rope3_Seg02 Rope3_Seg01
Rope3_Seg03 Rope3_Seg02
Rope3_Seg04 Rope3_Seg03
Rope3_Seg05 Rope3_Seg04
Rope3_Seg06 Rope3_Seg05
Rope3_Seg07 Rope3_Seg06
Rope3_Seg08 Rope3_Seg07
Rope3_Seg09 Rope3_Seg08
R_rear_hand01 Rope3_Seg09
R_rear_hand02 Rope3_Seg09
R_rear_hand03 Rope3_Seg09
Rope4_Seg01 null_rope04_connect
Rope4_Seg02 Rope4_Seg01
Rope4_Seg03 Rope4_Seg02
Rope4_Seg04 Rope4_Seg03
Rope4_Seg05 Rope4_Seg04
Rope4_Seg06 Rope4_Seg05
Rope4_Seg07 Rope4_Seg06
Rope4_Seg08 Rope4_Seg07
Rope4_Seg09 Rope4_Seg08
L_rear_hand01 Rope4_Seg09
L_rear_hand02 Rope4_Seg09
L_rear_hand03 Rope4_Seg09
[BasePosition]
#SegmentName Tx, Ty, Tz, Rx, Ry, Rz, BoneLength
MASTER 0.000000 0.000000 0.000000 -90.000000 0.000000 0.000000 10.000000 
root 0.000000 0.000000 0.000000 0.000000 0.000000 0.000000 10.000000 
chest 0.000000 0.000000 0.000000 0.000000 0.000000 0.000000 10.000000 
L_mid_tent01 0.000000 0.000000 0.000000 0.000000 0.000000 0.000000 10.000000 
R_mid_tent01 0.000000 0.000000 0.000000 0.000000 0.000000 0.000000 10.000000 
spine01 0.000000 0.000000 0.000000 0.000000 0.000000 0.000000 10.000000 
Bip01_Neck 0.000000 0.000000 0.000000 0.000000 0.000000 0.000000 10.000000 
L_humerus 0.000000 0.000000 0.000000 0.000000 0.000000 0.000000 10.000000 
R_humerus 0.000000 0.000000 0.000000 0.000000 0.000000 0.000000 10.000000 
weapon_bone 0.000000 0.000000 0.000000 0.000000 0.000000 0.000000 10.000000 
Bip01_Head 0.000000 0.000000 0.000000 0.000000 0.000000 0.000000 10.000000 
eye_left_bone 0.000000 0.000000 0.000000 0.000000 0.000000 0.000000 10.000000 
eye_right_bone 0.000000 0.000000 0.000000 0.000000 0.000000 0.000000 10.000000 
L_forearm 0.000000 0.000000 0.000000 0.000000 0.000000 0.000000 10.000000 
L_front_hand 0.000000 0.000000 0.000000 0.000000 0.000000 0.000000 10.000000 
L_weapon_bone 0.000000 0.000000 0.000000 0.000000 0.000000 0.000000 10.000000 
L_front_hand01_01 0.000000 0.000000 0.000000 0.000000 0.000000 0.000000 10.000000 
L_front_hand02_01 0.000000 0.000000 0.000000 0.000000 0.000000 0.000000 10.000000 
L_front_hand03_01 0.000000 0.000000 0.000000 0.000000 0.000000 0.000000 10.000000 
L_front_hand01_02 0.000000 0.000000 0.000000 0.000000 0.000000 0.000000 10.000000 
L_front_hand02_02 0.000000 0.000000 0.000000 0.000000 0.000000 0.000000 10.000000 
L_front_hand03_02 0.000000 0.000000 0.000000 0.000000 0.000000 0.000000 10.000000 
R_forearm 0.000000 0.000000 0.000000 0.000000 0.000000 0.000000 10.000000 
R_front_hand 0.000000 0.000000 0.000000 0.000000 0.000000 0.000000 10.000000 
R_weapon_bone 0.000000 0.000000 0.000000 0.000000 0.000000 0.000000 10.000000 
R_front_hand01_01 0.000000 0.000000 0.000000 0.000000 0.000000 0.000000 10.000000 
R_front_hand02_01 0.000000 0.000000 0.000000 0.000000 0.000000 0.000000 10.000000 
R_front_hand03_01 0.000000 0.000000 0.000000 0.000000 0.000000 0.000000 10.000000 
R_front_hand01_02 0.000000 0.000000 0.000000 0.000000 0.000000 0.000000 10.000000 
R_front_hand02_02 0.000000 0.000000 0.000000 0.000000 0.000000 0.000000 10.000000 
R_front_hand03_02 0.000000 0.000000 0.000000 0.000000 0.000000 0.000000 10.000000 
null_rope01_connect 0.000000 0.000000 0.000000 0.000000 0.000000 0.000000 10.000000 
Rope1_Seg01 0.000000 0.000000 0.000000 0.000000 0.000000 0.000000 10.000000 
Rope1_Seg02 0.000000 0.000000 0.000000 0.000000 0.000000 0.000000 10.000000 
Rope1_Seg03 0.000000 0.000000 0.000000 0.000000 0.000000 0.000000 10.000000 
Rope1_Seg04 0.000000 0.000000 0.000000 0.000000 0.000000 0.000000 10.000000 
Rope1_Seg05 0.000000 0.000000 0.000000 0.000000 0.000000 0.000000 10.000000 
Rope1_Seg06 0.000000 0.000000 0.000000 0.000000 0.000000 0.000000 10.000000 
Rope1_Seg07 0.000000 0.000000 0.000000 0.000000 0.000000 0.000000 10.000000 
Rope1_Seg09 0.000000 0.000000 0.000000 0.000000 0.000000 0.000000 10.000000 
L_mid_hand01 0.000000 0.000000 0.000000 0.000000 0.000000 0.000000 10.000000 
L_mid_hand02 0.000000 0.000000 0.000000 0.000000 0.000000 0.000000 10.000000 
L_mid_hand03 0.000000 0.000000 0.000000 0.000000 0.000000 0.000000 10.000000 
null_rope02_connect 0.000000 0.000000 0.000000 0.000000 0.000000 0.000000 10.000000 
Rope2_Seg01 0.000000 0.000000 0.000000 0.000000 0.000000 0.000000 10.000000 
Rope2_Seg02 0.000000 0.000000 0.000000 0.000000 0.000000 0.000000 10.000000 
Rope2_Seg03 0.000000 0.000000 0.000000 0.000000 0.000000 0.000000 10.000000 
Rope2_Seg04 0.000000 0.000000 0.000000 0.000000 0.000000 0.000000 10.000000 
Rope2_Seg05 0.000000 0.000000 0.000000 0.000000 0.000000 0.000000 10.000000 
Rope2_Seg06 0.000000 0.000000 0.000000 0.000000 0.000000 0.000000 10.000000 
Rope2_Seg07 0.000000 0.000000 0.000000 0.000000 0.000000 0.000000 10.000000 
Rope2_Seg09 0.000000 0.000000 0.000000 0.000000 0.000000 0.000000 10.000000 
R_mid_hand01 0.000000 0.000000 0.000000 0.000000 0.000000 0.000000 10.000000 
R_mid_hand02 0.000000 0.000000 0.000000 0.000000 0.000000 0.000000 10.000000 
R_mid_hand03 0.000000 0.000000 0.000000 0.000000 0.000000 0.000000 10.000000 
spine02 0.000000 0.000000 0.000000 0.000000 0.000000 0.000000 10.000000 
spine03 0.000000 0.000000 0.000000 0.000000 0.000000 0.000000 10.000000 
pelvis 0.000000 0.000000 0.000000 0.000000 0.000000 0.000000 10.000000 
null_rope03_connect 0.000000 0.000000 0.000000 0.000000 0.000000 0.000000 10.000000 
null_rope04_connect 0.000000 0.000000 0.000000 0.000000 0.000000 0.000000 10.000000 
Rope3_Seg01 0.000000 0.000000 0.000000 0.000000 0.000000 0.000000 10.000000 
Rope3_Seg02 0.000000 0.000000 0.000000 0.000000 0.000000 0.000000 10.000000 
Rope3_Seg03 0.000000 0.000000 0.000000 0.000000 0.000000 0.000000 10.000000 
Rope3_Seg04 0.000000 0.000000 0.000000 0.000000 0.000000 0.000000 10.000000 
Rope3_Seg05 0.000000 0.000000 0.000000 0.000000 0.000000 0.000000 10.000000 
Rope3_Seg06 0.000000 0.000000 0.000000 0.000000 0.000000 0.000000 10.000000 
Rope3_Seg07 0.000000 0.000000 0.000000 0.000000 0.000000 0.000000 10.000000 
Rope3_Seg08 0.000000 0.000000 0.000000 0.000000 0.000000 0.000000 10.000000 
Rope3_Seg09 0.000000 0.000000 0.000000 0.000000 0.000000 0.000000 10.000000 
R_rear_hand01 0.000000 0.000000 0.000000 0.000000 0.000000 0.000000 10.000000 
R_rear_hand02 0.000000 0.000000 0.000000 0.000000 0.000000 0.000000 10.000000 
R_rear_hand03 0.000000 0.000000 0.000000 0.000000 0.000000 0.000000 10.000000 
Rope4_Seg01 0.000000 0.000000 0.000000 0.000000 0.000000 0.000000 10.000000 
Rope4_Seg02 0.000000 0.000000 0.000000 0.000000 0.000000 0.000000 10.000000 
Rope4_Seg03 0.000000 0.000000 0.000000 0.000000 0.000000 0.000000 10.000000 
Rope4_Seg04 0.000000 0.000000 0.000000 0.000000 0.000000 0.000000 10.000000 
Rope4_Seg05 0.000000 0.000000 0.000000 0.000000 0.000000 0.000000 10.000000 
Rope4_Seg06 0.000000 0.000000 0.000000 0.000000 0.000000 0.000000 10.000000 
Rope4_Seg07 0.000000 0.000000 0.000000 0.000000 0.000000 0.000000 10.000000 
Rope4_Seg08 0.000000 0.000000 0.000000 0.000000 0.000000 0.000000 10.000000 
Rope4_Seg09 0.000000 0.000000 0.000000 0.000000 0.000000 0.000000 10.000000 
L_rear_hand01 0.000000 0.000000 0.000000 0.000000 0.000000 0.000000 10.000000 
L_rear_hand02 0.000000 0.000000 0.000000 0.000000 0.000000 0.000000 10.000000 
L_rear_hand03 0.000000 0.000000 0.000000 0.000000 0.000000 0.000000 10.000000 
#Beginning of Data. Separated by tabs
#Fr	Tx	Ty	Tz	Rx	Ry	Rz	SF
[MASTER]
14 -1334.756104 -17.958542 1608.702759 0.001660 0.001660 0.001660 2090.411621
15 -1375.941772 14.090368 1715.896606 0.001660 0.001660 0.001660 2199.480713
[root]
14 42.929844 -54.249969 381.115112 -155.941666 -15.129096 -69.588676 387.343201
15 43.988338 -51.398685 304.501648 -160.051239 -14.589283 -71.356834 311.926361
[chest]
14 -84.512650 -34.090519 0.000000 -25.935629 -15.235415 175.104965 91.129311
15 -84.512650 -34.090519 0.000000 -29.020334 -17.108351 175.926300 91.129311
[L_mid_tent01]
14 27.299129 22.179192 -249.918716 -10.444676 16.746891 40.790997 252.381714
15 27.299131 22.179195 -249.918716 -11.933413 15.098729 35.005299 252.381714
[R_mid_tent01]
14 23.228794 24.509907 226.238495 173.154266 -9.414378 58.359932 228.744751
15 23.228794 24.509907 226.238495 173.508698 -6.777074 55.622055 228.744751
[spine01]
14 -0.361383 -0.195265 0.000000 0.001957 0.001296 22.955746 0.410763
15 -0.361383 -0.195265 0.000000 0.001957 0.001296 22.977192 0.410763
[Bip01_Neck]
14 165.484543 71.581718 0.000119 176.643677 -1.657967 43.431911 180.302734
15 165.484543 71.581718 0.000119 176.643677 -1.657967 43.431911 180.302734
[L_humerus]
14 -13.983130 -135.272980 -120.471481 172.304749 7.177853 -90.250710 181.680161
15 -13.983130 -135.272980 -120.471481 172.194672 10.455908 -90.649612 181.680161
[R_humerus]
14 -13.983309 -135.273102 125.287651 -177.017899 -1.097162 -85.601974 184.909012
15 -13.983309 -135.273102 125.287651 -172.409851 -8.924840 -89.197372 184.909012
[weapon_bone]
14 235.964890 -300.705902 0.000000 0.000000 -89.951546 -128.212341 382.234833
15 235.964890 -300.705902 0.000000 0.000000 -89.951546 -128.212341 382.234833
[Bip01_Head]
14 213.665268 185.100204 19.721071 13.514368 -1.426586 -43.900455 283.379333
15 213.660950 185.112000 19.567871 4.835003 -1.325640 -43.897614 283.373169
[eye_left_bone]
14 -24.626970 125.451866 -64.772606 0.000000 -90.000000 -99.840431 143.318359
15 -24.626970 125.451866 -64.772606 0.000000 -90.000000 -99.840431 143.318359
[eye_right_bone]
14 -24.626970 125.451866 64.327362 0.000000 -89.965736 80.156380 143.117676
15 -24.626970 125.451866 64.327362 0.000000 -89.965736 80.156380 143.117676
[L_forearm]
14 322.776093 0.000000 -0.000119 0.000132 -0.002343 -96.458893 322.776093
15 322.776093 0.000000 -0.000119 0.000135 -0.002343 -96.611412 322.776093
[L_front_hand]
14 241.149185 -0.042021 -3.300071 175.256699 -1.837269 -27.423409 241.171753
15 241.149185 -0.042021 -3.300071 174.496582 -1.834776 -27.424725 241.171753
[L_weapon_bone]
14 156.183838 0.000000 0.000000 0.000014 0.000007 0.000001 156.183838
15 156.183838 0.000000 0.000000 0.000014 0.000007 0.000001 156.183838
[L_front_hand01_01]
14 86.095154 20.947098 -0.655860 -0.305999 -0.513632 68.527222 88.609184
15 86.095154 20.947098 -0.655860 -0.289670 -0.523794 66.735390 88.609184
[L_front_hand02_01]
14 86.935165 -11.437475 24.513514 144.856293 -56.401772 -50.146175 91.046425
15 86.935165 -11.437475 24.513514 142.722214 -55.345612 -47.569828 91.046425
[L_front_hand03_01]
14 86.637497 -14.123976 -20.424902 -145.022797 54.621399 -52.039234 90.126129
15 86.637497 -14.123976 -20.424902 -143.016556 53.569096 -49.561108 90.126129
[L_front_hand01_02]
14 71.020905 -0.000179 0.000030 0.000317 -0.002326 -105.543335 71.020905
15 71.020905 -0.000179 0.000030 0.000316 -0.002326 -105.495743 71.020905
[L_front_hand02_02]
14 71.020927 -0.000119 0.000060 0.000317 -0.002326 -105.543335 71.020927
15 71.020927 -0.000119 0.000060 0.000316 -0.002326 -105.495743 71.020927
[L_front_hand03_02]
14 71.020905 -0.000060 0.000060 0.000317 -0.002326 -105.543335 71.020905
15 71.020905 -0.000060 0.000060 0.000316 -0.002326 -105.495743 71.020905
[R_forearm]
14 322.776428 -0.000060 0.000030 0.212769 0.017437 -94.998093 322.776428
15 322.776428 -0.000060 0.000030 0.212745 0.017723 -95.152374 322.776428
[R_front_hand]
14 238.847015 -0.006795 2.210259 -2.635298 -10.645461 -26.312506 238.857239
15 238.847015 -0.006795 2.210259 -2.635298 -10.645461 -26.312506 238.857239
[R_weapon_bone]
14 155.664093 0.002503 -0.000030 0.003487 0.001180 -90.988930 155.664078
15 155.664093 0.002503 -0.000030 0.003487 0.001180 -90.988930 155.664078
[R_front_hand01_01]
14 87.624611 14.231146 22.918642 -141.947067 -54.924732 46.726727 91.683487
15 87.624611 14.231146 22.918642 -140.102493 -53.853168 44.460335 91.683487
[R_front_hand02_01]
14 89.356956 14.367283 -19.491137 142.634140 53.329136 49.315861 92.579636
15 89.356956 14.367283 -19.491137 140.872437 52.278004 47.106758 92.579636
[R_front_hand03_01]
14 87.286232 -22.307278 -0.143439 0.092230 -0.445770 -66.286453 90.091743
15 87.286232 -22.307278 -0.143439 0.074609 -0.448192 -64.587509 90.091743
[R_front_hand01_02]
14 71.020905 0.000060 0.000119 0.002323 -0.000334 106.381706 71.020905
15 71.020905 0.000060 0.000119 0.002323 -0.000334 106.381706 71.020905
[R_front_hand02_02]
14 71.020844 -0.000030 -0.000119 0.002323 -0.000334 106.381706 71.020836
15 71.020844 -0.000030 -0.000119 0.002323 -0.000334 106.381706 71.020836
[R_front_hand03_02]
14 71.020905 0.000000 0.000030 0.002323 -0.000334 106.381706 71.020905
15 71.020905 0.000000 0.000030 0.002323 -0.000334 106.381706 71.020905
[null_rope01_connect]
14 328.732483 0.000000 -0.000238 -162.253571 -11.920243 -114.269264 328.732483
15 328.732483 0.000000 -0.000238 -161.647125 -7.607383 -109.894417 328.732483
[Rope1_Seg01]
14 0.000057 -0.000052 0.000096 73.308220 -60.455605 32.224949 0.000123
15 0.000061 -0.000053 0.000092 75.131531 -54.789066 30.381744 0.000122
[Rope1_Seg02]
14 139.999863 -0.000179 0.000000 -0.031395 6.552161 5.396525 139.999863
15 139.999863 -0.000179 0.000000 -0.610629 5.050835 3.747740 139.999863
[Rope1_Seg03]
14 139.999924 0.000060 -0.000060 0.949719 16.148273 13.886666 139.999924
15 139.999924 0.000060 -0.000060 -1.062480 10.619787 8.200448 139.999924
[Rope1_Seg04]
14 139.999924 -0.000060 -0.000119 15.837610 39.332108 48.227047 139.999924
15 139.999924 -0.000060 -0.000119 2.600903 32.167622 30.502741 139.999924
[Rope1_Seg05]
14 139.999832 0.000119 -0.000060 2.130997 17.305723 16.470579 139.999832
15 139.999832 0.000119 -0.000060 6.013733 30.997660 37.229176 139.999832
[Rope1_Seg06]
14 139.999954 0.000119 -0.000060 0.579584 -2.629249 -8.310119 139.999954
15 139.999954 0.000119 -0.000060 -0.100892 2.548410 3.621156 139.999954
[Rope1_Seg07]
14 139.999985 0.000060 0.000000 1.844804 -3.849437 -11.163713 139.999985
15 139.999985 0.000060 0.000000 0.780648 -6.966608 -6.917540 139.999985
[Rope1_Seg09]
14 121.602913 0.000119 -0.000089 -89.793175 -1.359789 0.847147 121.602913
15 121.602913 0.000119 -0.000089 -89.793175 -1.359789 0.847147 121.602913
[L_mid_hand01]
14 103.859421 1.038730 8.195221 110.016693 -43.583382 -14.630747 104.187431
15 103.859421 1.038730 8.195221 109.301483 -41.408253 -13.576799 104.187431
[L_mid_hand02]
14 105.572853 -4.139662 -10.864139 -148.402451 33.171711 -41.059570 106.211075
15 105.572853 -4.139662 -10.864139 -147.153671 31.943630 -38.737034 106.211075
[L_mid_hand03]
14 104.641464 17.579376 -3.913581 -13.575854 13.082141 47.042400 106.179977
15 104.641464 17.579376 -3.913581 -14.087292 12.528420 44.741467 106.179977
[null_rope02_connect]
14 328.732849 0.000179 -0.000119 -7.809235 27.055632 119.407104 328.732849
15 328.732849 0.000179 -0.000119 -2.787378 21.884325 121.647217 328.732849
[Rope2_Seg01]
14 0.000081 0.000129 -0.000057 83.604729 85.247498 18.113344 0.000162
15 0.000084 0.000130 -0.000061 111.069084 74.056396 49.724380 0.000166
[Rope2_Seg02]
14 139.999741 -0.000060 -0.000119 -5.184443 25.412159 -4.654906 139.999756
15 139.999741 -0.000060 -0.000119 -3.385283 22.856884 -7.911090 139.999756
[Rope2_Seg03]
14 140.000107 0.000030 0.000000 -5.157081 7.375680 2.437519 140.000107
15 140.000107 0.000030 0.000000 -3.179584 7.203218 -0.069631 140.000107
[Rope2_Seg04]
14 139.999802 0.000000 -0.000060 -1.585150 8.018375 -2.474715 139.999802
15 139.999802 0.000000 -0.000060 -1.100257 6.740956 -2.302709 139.999802
[Rope2_Seg05]
14 139.999985 -0.000060 0.000119 5.515754 22.497234 -12.445933 139.999985
15 139.999985 -0.000060 0.000119 3.143696 19.445309 -10.429027 139.999985
[Rope2_Seg06]
14 139.999893 -0.000030 -0.000119 159.831482 24.281389 -18.566999 139.999893
15 139.999893 -0.000030 -0.000119 161.972626 28.485729 -20.279310 139.999893
[Rope2_Seg07]
14 139.999893 0.000060 -0.000060 1.783765 -14.975622 4.977325 139.999893
15 139.999893 0.000060 -0.000060 1.203446 -16.699642 5.891593 139.999893
[Rope2_Seg09]
14 121.338966 0.000089 -0.000060 33.793236 -1.359788 -0.847141 121.338966
15 121.338966 0.000089 -0.000060 33.793236 -1.359788 -0.847141 121.338966
[R_mid_hand01]
14 104.680779 11.144459 -10.335981 -29.481638 39.038574 50.818577 105.778534
15 104.680779 11.144459 -10.335981 -31.399162 37.614391 47.725441 105.778534
[R_mid_hand02]
14 104.070427 2.443552 8.231699 64.792824 -54.379646 21.475639 104.424065
15 104.070427 2.443552 8.231699 66.339699 -51.820030 19.540783 104.424065
[R_mid_hand03]
14 106.028137 -11.221827 -5.996406 -172.901596 14.168235 -60.324333 106.788818
15 106.028137 -11.221827 -5.996406 -172.206848 13.802570 -57.446243 106.788818
[spine02]
14 129.756927 0.001550 0.000119 -0.962880 -3.946512 5.842259 129.756927
15 129.756927 0.001550 0.000119 -0.944950 -3.948945 5.608781 129.756927
[spine03]
14 78.614044 0.081447 -4.898993 1.081266 4.135332 4.793222 78.766579
15 78.614044 0.081421 -4.898993 1.091678 4.133694 4.944673 78.766579
[pelvis]
14 169.435242 0.051022 0.000000 0.017572 -0.190423 -9.549662 169.435257
15 169.435242 0.051022 0.000000 0.017085 -0.190467 -9.256874 169.435257
[null_rope03_connect]
14 -1.257226 -2.466202 137.391083 -174.679306 -27.489395 -91.638512 137.418976
15 -1.257226 -2.466202 137.391083 -172.734604 -23.300753 -94.492111 137.418976
[null_rope04_connect]
14 -1.259640 -2.480268 -137.844437 -174.679306 -27.489395 -91.638512 137.872513
15 -1.259640 -2.480268 -137.844437 -172.734604 -23.300753 -94.492111 137.872513
[Rope3_Seg01]
14 0.000000 0.000000 0.000000 -1.945631 -12.212652 -27.151060 0.000000
15 0.000000 0.000000 0.000000 -4.007964 -12.554017 -24.721321 0.000000
[Rope3_Seg02]
14 139.999924 -0.000119 0.000060 24.505390 24.730354 -1.335505 139.999924
15 139.999924 -0.000119 0.000060 25.172775 25.502041 -7.302341 139.999924
[Rope3_Seg03]
14 139.999924 -0.000119 0.000119 26.528934 48.745934 -44.423946 139.999924
15 139.999924 -0.000119 0.000119 8.695293 43.296864 -63.269131 139.999924
[Rope3_Seg04]
14 139.999924 0.000119 0.000000 2.856697 3.384238 -22.641676 139.999924
15 139.999924 0.000119 0.000000 -0.610749 2.732469 -19.389122 139.999924
[Rope3_Seg05]
14 139.999924 -0.000238 0.000060 -0.747372 8.590298 -14.620664 139.999924
15 139.999924 -0.000238 0.000060 -2.077205 3.951942 -10.667006 139.999924
[Rope3_Seg06]
14 139.999893 -0.000119 -0.000060 -11.009126 21.679712 -30.921995 139.999893
15 139.999893 -0.000119 -0.000060 -10.341017 11.127391 -22.904245 139.999893
[Rope3_Seg07]
14 139.999771 0.000060 -0.000119 -8.293008 14.474584 -17.797033 139.999771
15 139.999771 0.000060 -0.000119 -21.603102 17.541119 -27.002594 139.999771
[Rope3_Seg08]
14 139.999985 -0.000060 0.000000 -2.946243 6.326931 -6.382625 139.999985
15 139.999985 -0.000060 0.000000 -8.415923 9.877552 -8.123489 139.999985
[Rope3_Seg09]
14 90.185997 -0.000179 -0.000060 89.793228 -1.359877 -0.847183 90.185997
15 90.185997 -0.000179 -0.000060 89.793228 -1.359877 -0.847183 90.185997
[R_rear_hand01]
14 103.366196 -6.073594 -10.757982 -179.071259 -16.803545 -60.324081 104.101845
15 103.366196 -6.073594 -10.757982 -177.762299 -17.271214 -57.797363 104.101845
[R_rear_hand02]
14 100.509819 12.039542 -7.992327 -25.038765 30.595232 50.476662 101.543350
15 100.509819 12.039542 -7.992327 -26.694445 29.195726 47.151855 101.543350
[R_rear_hand03]
14 101.539970 5.215704 5.435467 80.458870 -53.275658 11.535563 101.819031
15 101.539970 5.215704 5.435467 81.113556 -50.109848 10.702383 101.819031
[Rope4_Seg01]
14 0.000010 0.000024 -0.000096 -104.023827 -12.136827 -56.862167 0.000099
15 0.000010 0.000023 -0.000092 -96.156860 -5.248438 -52.778858 0.000095
[Rope4_Seg02]
14 139.999985 0.000060 0.000119 -30.720312 23.191164 -28.323935 139.999985
15 139.999985 0.000060 0.000119 -34.624802 19.844913 -30.508772 139.999985
[Rope4_Seg03]
14 139.999924 0.000000 -0.000238 -15.425366 39.075279 -22.634560 139.999924
15 139.999924 0.000000 -0.000238 -22.674654 44.618439 -30.044699 139.999924
[Rope4_Seg04]
14 139.999985 0.000000 0.000119 1.036040 13.902678 -5.339893 139.999985
15 139.999985 0.000000 0.000119 1.371914 14.824463 -5.198565 139.999985
[Rope4_Seg05]
14 139.999802 -0.000060 -0.000119 1.576390 9.418286 -0.945437 139.999802
15 139.999802 -0.000060 -0.000119 1.647059 8.308223 -1.311957 139.999802
[Rope4_Seg06]
14 139.999924 0.000000 0.000060 4.652067 18.045486 0.580410 139.999924
15 139.999924 0.000000 0.000060 4.192938 14.976383 -0.834628 139.999924
[Rope4_Seg07]
14 139.999802 0.000000 0.000000 17.342562 25.462591 -1.481774 139.999802
15 139.999802 0.000000 0.000000 18.310789 26.973190 -3.546315 139.999802
[Rope4_Seg08]
14 139.999924 0.000000 0.000119 22.695917 13.359649 -5.766940 139.999924
15 139.999924 0.000000 0.000119 25.310915 15.008121 -8.214962 139.999924
[Rope4_Seg09]
14 90.185791 0.000060 0.000060 -135.617828 2.228885 0.850567 90.185791
15 90.185791 0.000060 0.000060 -135.617828 2.228885 0.850567 90.185791
[L_rear_hand01]
14 101.696655 -8.392275 -7.654577 -31.553307 -23.761135 143.711090 102.329041
15 101.696655 -8.392275 -7.654577 -31.194277 -24.256094 142.819397 102.329041
[L_rear_hand02]
14 102.726799 -1.568258 5.773216 82.664513 39.085827 171.495636 102.900848
15 102.726799 -1.568258 5.773216 82.562164 40.032185 171.334641 102.900848
[L_rear_hand03]
14 104.552910 9.721220 -10.420293 -164.089569 -19.094524 -141.662735 105.519653
15 104.552910 9.721220 -10.420293 -164.408707 -19.357925 -140.691956 105.519653
